HIERARCHY
ROOT Hips
{
    OFFSET 0.000000 0.000000 0.000000
    CHANNELS 6 Xposition Yposition Zposition Zrotation Xrotation Yrotation
    JOINT Spine
    {
        OFFSET -0.000000 7.236184 0.000000
        CHANNELS 3 Zrotation Xrotation Yrotation
        JOINT Spine1
        {
            OFFSET -0.000000 20.420147 0.000000
            CHANNELS 3 Zrotation Xrotation Yrotation
            JOINT Neck
            {
                OFFSET -0.000000 20.336288 1.848754
                CHANNELS 3 Zrotation Xrotation Yrotation
                JOINT Head
                {
                    OFFSET -0.000000 12.354461 -1.764923
                    CHANNELS 3 Zrotation Xrotation Yrotation
                    End Site
                    {
                        OFFSET -0.000000 22.061537 0.000000
                    }
                }
            }
            JOINT LeftShoulder
            {
                OFFSET 3.573296 18.396038 -0.314103
                CHANNELS 3 Zrotation Xrotation Yrotation
                JOINT LeftArm
                {
                    OFFSET 10.880760 0.000000 0.000000
                    CHANNELS 3 Zrotation Xrotation Yrotation
                    JOINT LeftForeArm
                    {
                        OFFSET 27.185530 0.000000 0.000000
                        CHANNELS 3 Zrotation Xrotation Yrotation
                        JOINT LeftHand
                        {
                            OFFSET 27.825975 0.000000 0.000000
                            CHANNELS 3 Zrotation Xrotation Yrotation
                            End Site
                            {
                                OFFSET 13.236923 0.000000 0.000000
                            }
                        }
                    }
                }
            }
            JOINT RightShoulder
            {
                OFFSET -3.474926 18.396038 -0.314103
                CHANNELS 3 Zrotation Xrotation Yrotation
                JOINT RightArm
                {
                    OFFSET -10.880760 0.000000 0.000000
                    CHANNELS 3 Zrotation Xrotation Yrotation
                    JOINT RightForeArm
                    {
                        OFFSET -27.185530 0.000000 0.000000
                        CHANNELS 3 Zrotation Xrotation Yrotation
                        JOINT RightHand
                        {
                            OFFSET -27.825975 0.000000 0.000000
                            CHANNELS 3 Zrotation Xrotation Yrotation
                            End Site
                            {
                                OFFSET -13.236923 0.000000 0.000000
                            }
                        }
                    }
                }
            }
        }
    }
    JOINT LeftUpLeg
    {
        OFFSET 8.824615 0.000000 0.000000
        CHANNELS 3 Zrotation Xrotation Yrotation
        JOINT LeftLeg
        {
            OFFSET -0.000000 -35.111282 0.000000
            CHANNELS 3 Zrotation Xrotation Yrotation
            JOINT LeftFoot
            {
                OFFSET -0.000000 -42.324711 0.000000
                CHANNELS 3 Zrotation Xrotation Yrotation
                JOINT LeftToeBase
                {
                    OFFSET -0.000000 -5.735999 13.236923
                    CHANNELS 3 Zrotation Xrotation Yrotation
                    End Site
                    {
                        OFFSET -0.000000 0.000000 3.529846
                    }
                }
            }
        }
    }
    JOINT RightUpLeg
    {
        OFFSET -8.824615 0.000000 0.000000
        CHANNELS 3 Zrotation Xrotation Yrotation
        JOINT RightLeg
        {
            OFFSET -0.000000 -35.111282 0.000000
            CHANNELS 3 Zrotation Xrotation Yrotation
            JOINT RightFoot
            {
                OFFSET -0.000000 -42.324711 0.000000
                CHANNELS 3 Zrotation Xrotation Yrotation
                JOINT RightToeBase
                {
                    OFFSET -0.000000 -5.735999 13.236923
                    CHANNELS 3 Zrotation Xrotation Yrotation
                    End Site
                    {
                        OFFSET -0.000000 0.000000 3.529846
                    }
                }
            }
        }
    }
}
MOTION
Frames:    8
Frame Time:    0.008333
-7.271332    82.920639    102.879951    1.444246    -19.765301    -173.525604    -2.616792    -9.948071    -0.393889    1.318463    7.651732    -0.254554    4.758518    2.443304    -1.040834    1.422933    -12.498649    -1.332922    -1.035004    18.794064    0.002143    -59.134693    37.735249    -20.872557    2.048053    -6.626287    -10.425292    27.166454    -5.355825    4.511248    6.607948    17.561504    -6.330383    47.607803    33.120739    24.066164    -12.447263    -11.253798    44.532154    -25.306993    -6.801819    2.722305    1.543294    -19.808609    -4.005263    -2.013271    7.323743    -5.080160    -0.453693    -5.315081    -5.927687    0.150025    1.554453    -0.165838    -4.024534    -15.221851    2.397418    3.236818    1.984041    1.582151    -0.149816    -3.602471    -12.668956    0.882338    -0.244688    -0.954636    
-7.320240    82.833435    102.508400    1.346061    -18.884014    -173.533661    -2.612078    -10.243033    -0.419990    1.291622    7.458944    -0.270399    4.601585    2.371972    -1.102481    1.628095    -12.629900    -1.327258    -0.976127    18.727980    -0.008745    -59.015884    37.658855    -21.223154    2.204226    -6.777571    -10.674009    27.235529    -5.515012    4.389525    6.522387    17.531214    -6.343510    47.699860    32.682560    23.623377    -12.297521    -10.908603    43.186920    -25.950836    -6.794183    3.143332    1.525853    -18.764893    -3.984054    -2.012106    7.560699    -5.371217    -0.372969    -5.712512    -5.699718    0.173751    1.530448    -0.192073    -4.030162    -14.104075    2.350323    3.278584    2.092082    1.754165    -0.233456    -3.911805    -12.772855    0.878138    -0.257897    -0.950108    
-7.368220    82.744728    102.149490    1.245174    -18.025259    -173.546555    -2.608241    -10.540116    -0.441152    1.259002    7.297456    -0.280703    4.469451    2.335907    -1.172716    1.805815    -12.725066    -1.339123    -0.906838    18.661144    -0.019089    -58.904114    37.579796    -21.581125    2.394572    -6.961255    -10.962555    27.399460    -5.703930    4.244711    6.431797    17.491985    -6.361713    47.757912    32.292690    23.209042    -12.117441    -10.612975    42.005867    -26.508114    -6.809634    3.497373    1.507316    -17.744051    -3.959022    -2.012672    7.783618    -5.643549    -0.306314    -6.103437    -5.491054    0.190665    1.526543    -0.210772    -4.042927    -13.010146    2.311146    3.320938    2.186597    1.926504    -0.314172    -4.212386    -12.879750    0.875026    -0.266835    -0.946752    
-7.415041    82.655701    101.802277    1.141519    -17.188639    -173.565857    -2.605299    -10.839257    -0.457508    1.219924    7.161669    -0.286594    4.363014    2.329734    -1.248276    1.955850    -12.785433    -1.365791    -0.827518    18.593744    -0.027835    -58.798153    37.503220    -21.943705    2.612446    -7.177439    -11.288891    27.638540    -5.923970    4.077560    6.337946    17.445961    -6.384803    47.785381    31.954390    22.826513    -11.917277    -10.362670    40.964199    -26.993105    -6.842002    3.785237    1.487909    -16.744331    -3.930536    -2.015112    7.990669    -5.888543    -0.256412    -6.488140    -5.308459    0.202329    1.544882    -0.223659    -4.061803    -11.940060    2.278022    3.363173    2.268129    2.099352    -0.392168    -4.501086    -12.987038    0.872074    -0.273736    -0.943568    
-7.459907    82.568359    101.468971    1.036719    -16.381189    -173.592911    -2.603523    -11.138782    -0.469948    1.175774    7.048413    -0.288556    4.282029    2.346412    -1.325548    2.078391    -12.810538    -1.403962    -0.739520    18.525322    -0.033324    -58.698761    37.434250    -22.305071    2.850159    -7.421248    -11.647967    27.927145    -6.170844    3.893240    6.242479    17.394991    -6.411803    47.786198    31.671320    22.481989    -11.707253    -10.154062    40.045940    -27.413616    -6.885186    4.007392    1.468667    -15.773192    -3.898460    -2.019297    8.179099    -6.100895    -0.220386    -6.861521    -5.155828    0.208370    1.580792    -0.230322    -4.084630    -10.903851    2.248614    3.403559    2.337729    2.271602    -0.466707    -4.773248    -13.090540    0.868677    -0.280818    -0.939901    
-7.502090    82.484230    101.150475    0.932827    -15.606823    -173.628815    -2.603204    -11.438660    -0.479274    1.129321    6.953981    -0.287213    4.224635    2.379654    -1.401561    2.174941    -12.801739    -1.450404    -0.643774    18.456263    -0.035493    -58.608025    37.374142    -22.660860    3.101604    -7.684948    -12.034228    28.237612    -6.436883    3.698346    6.146634    17.340693    -6.441177    47.765171    31.442133    22.178638    -11.494560    -9.981476    39.229614    -27.777872    -6.934310    4.168437    1.451090    -14.834883    -3.862203    -2.024680    8.347884    -6.282160    -0.190850    -7.217709    -5.030990    0.206889    1.622080    -0.228669    -4.108320    -9.908279    2.220131    3.440157    2.397669    2.441431    -0.535715    -5.026412    -13.184535    0.864576    -0.289429    -0.935475    
-7.540952    82.404663    100.848030    0.831973    -14.869803    -173.674591    -2.604403    -11.737878    -0.486042    1.083395    6.873013    -0.283282    4.188665    2.423917    -1.473781    2.247026    -12.761016    -1.501929    -0.541097    18.387506    -0.034382    -58.529057    37.322945    -23.005857    3.361714    -7.958488    -12.443090    28.541622    -6.711259    3.501560    6.051704    17.285351    -6.471588    47.727104    31.262957    21.918900    -11.283714    -9.839499    38.495327    -28.091640    -6.985978    4.273826    1.436658    -13.934516    -3.822075    -2.031051    8.496544    -6.434174    -0.161529    -7.550613    -4.930256    0.197026    1.655115    -0.217755    -4.129887    -8.961205    2.190201    3.470937    2.450889    2.605331    -0.598656    -5.258690    -13.262141    0.859779    -0.300283    -0.930299    
-7.576433    82.329803    100.559402    0.735110    -14.165790    -173.731415    -2.606565    -12.038521    -0.490699    1.039445    6.797822    -0.277837    4.171368    2.476582    -1.540806    2.297784    -12.691157    -1.556113    -0.431824    18.321613    -0.029475    -58.462448    37.278568    -23.340830    3.629540    -8.234559    -12.875279    28.815943    -6.985365    3.310087    5.958350    17.230988    -6.501254    47.676640    31.127071    21.700102    -11.075540    -9.722678    37.816948    -28.362244    -7.038931    4.329005    1.426460    -13.067365    -3.779738    -2.038453    8.627490    -6.558693    -0.127178    -7.859380    -4.849088    0.178321    1.670575    -0.197077    -4.147151    -8.059333    2.157379    3.494713    2.501550    2.762671    -0.654853    -5.472604    -13.319943    0.854302    -0.313894    -0.924390    
